<svg width="581" height="259" viewBox="0 0 581 259" fill="none" xmlns="http://www.w3.org/2000/svg">
<rect width="581" height="259" fill="white"/>
<g clip-path="url(#clip0)">
<path d="M181.831 110.824V101.138C181.831 100.509 182.083 100.006 182.46 99.6289C182.711 99.2516 183.214 99 183.843 99H227.461C227.964 99 228.466 99.2516 228.844 99.6289C229.221 100.006 229.472 100.509 229.472 101.138V110.824C229.472 111.453 229.221 111.956 228.844 112.333C228.466 112.711 227.964 112.962 227.461 112.962H212.879V155.73C212.879 156.358 212.628 156.862 212.251 157.239C211.874 157.616 211.371 157.868 210.868 157.868H200.184C199.681 157.868 199.178 157.616 198.801 157.239C198.424 156.862 198.172 156.358 198.172 155.73V112.836H183.843C183.34 112.836 182.837 112.585 182.46 112.208C182.083 111.83 181.831 111.327 181.831 110.824Z" fill="#003180"/>
<path d="M251.344 129.314C249.459 129.314 247.95 129.943 246.693 131.075C245.436 132.208 244.933 133.843 244.933 135.73V155.855C244.933 156.358 244.808 156.862 244.431 157.239C244.053 157.616 243.676 157.742 243.048 157.742H232.992C232.489 157.742 231.986 157.616 231.609 157.239C231.232 156.862 231.106 156.484 231.106 155.855V104.157C231.106 103.654 231.232 103.151 231.609 102.774C231.986 102.396 232.363 102.27 232.992 102.27H243.048C243.551 102.27 244.053 102.396 244.431 102.774C244.808 103.151 244.933 103.528 244.933 104.157V123.277C246.19 121.39 247.824 120.006 249.71 119C251.595 117.994 253.858 117.491 256.372 117.491C261.274 117.491 265.045 119 267.56 121.893C270.074 124.786 271.331 129.063 271.331 134.723V155.981C271.331 156.484 271.205 156.987 270.828 157.365C270.451 157.742 270.074 157.868 269.445 157.868H259.389C258.886 157.868 258.383 157.742 258.006 157.365C257.629 156.987 257.503 156.61 257.503 155.981V135.855C257.503 133.843 256.875 132.333 255.744 131.201C254.738 129.943 253.23 129.314 251.344 129.314Z" fill="#003180"/>
<path d="M293.454 146.673C295.214 146.673 296.597 146.17 297.476 145.163C298.356 144.157 298.859 142.648 298.859 140.635V120.258C298.859 119.755 299.111 119.377 299.488 119.126C299.865 118.748 300.368 118.623 300.87 118.623H310.801C311.304 118.623 311.681 118.748 312.183 119.126C312.561 119.503 312.812 119.88 312.812 120.258V142.522C312.812 147.302 311.052 151.201 307.658 154.346C304.139 157.491 299.613 159 293.705 159C287.797 159 283.146 157.491 279.627 154.346C276.107 151.201 274.347 147.302 274.347 142.522V120.258C274.347 119.755 274.599 119.377 274.976 119.126C275.353 118.748 275.73 118.623 276.233 118.623H286.163C286.666 118.623 287.043 118.748 287.546 119.126C287.923 119.503 288.175 119.88 288.175 120.258V140.635C288.175 142.522 288.677 144.031 289.683 145.163C290.311 146.17 291.694 146.673 293.454 146.673Z" fill="#003180"/>
<path d="M358.693 129.314C357.059 129.314 355.801 129.818 354.922 130.824C354.042 131.83 353.539 133.214 353.539 135.101V155.855C353.539 156.358 353.413 156.862 353.036 157.239C352.659 157.616 352.282 157.742 351.653 157.742H341.597C341.094 157.742 340.592 157.616 340.215 157.239C339.837 156.862 339.712 156.484 339.712 155.855V135.101C339.712 133.34 339.209 131.956 338.329 130.824C337.449 129.818 336.192 129.314 334.558 129.314C332.924 129.314 331.667 129.818 330.787 130.824C329.907 131.83 329.404 133.214 329.404 135.101V155.855C329.404 156.358 329.279 156.862 328.901 157.239C328.524 157.616 328.147 157.742 327.519 157.742H317.463C316.96 157.742 316.457 157.616 316.08 157.239C315.703 156.862 315.577 156.484 315.577 155.855V120.384C315.577 119.881 315.703 119.377 316.08 119.126C316.457 118.748 316.834 118.623 317.463 118.623H327.393C327.896 118.623 328.399 118.748 328.776 119.126C329.153 119.503 329.279 119.881 329.279 120.384V123.277C330.536 121.516 332.044 120.006 333.93 119C335.815 117.994 337.826 117.491 339.963 117.491C342.477 117.491 344.74 117.994 346.5 119C348.385 120.006 349.768 121.39 350.773 123.277C352.408 121.264 354.293 119.755 356.304 118.874C358.316 117.994 360.704 117.491 363.344 117.491C367.743 117.491 371.137 118.874 373.525 121.642C376.039 124.409 377.296 128.182 377.296 132.711V155.981C377.296 156.484 377.171 156.987 376.794 157.365C376.416 157.742 376.039 157.868 375.411 157.868H365.355C364.852 157.868 364.349 157.742 363.972 157.365C363.595 156.987 363.469 156.61 363.469 155.981V135.101C363.469 133.34 362.966 131.956 362.087 130.824C361.458 129.818 360.201 129.314 358.693 129.314Z" fill="#003180"/>
<path d="M418.149 151.327C416.641 153.591 414.253 155.478 411.11 156.862C407.968 158.245 404.574 158.874 400.928 158.874C394.643 158.874 389.489 156.987 385.593 153.088C381.57 149.189 379.559 144.283 379.559 138.371C379.559 132.208 381.445 127.176 385.216 123.277C388.987 119.377 393.889 117.365 400.048 117.365C405.956 117.365 410.733 119.252 414.378 123.025C418.024 126.799 419.909 131.327 419.909 136.862V139.126C419.909 140.006 419.783 140.635 419.406 141.138C419.029 141.642 418.526 141.893 417.772 141.893H393.386C393.763 143.654 394.643 145.164 396.026 146.17C397.409 147.176 399.168 147.805 401.18 147.805C402.562 147.805 403.819 147.553 404.951 147.05C406.082 146.547 407.213 145.792 408.219 144.786C408.722 144.283 409.225 144.031 409.727 144.031C410.23 144.031 410.733 144.157 411.236 144.535L417.898 148.937C418.401 149.189 418.652 149.566 418.652 150.069C418.526 150.447 418.401 150.95 418.149 151.327ZM393.512 133.088H406.459C406.208 131.579 405.454 130.321 404.322 129.314C403.191 128.308 401.682 127.931 400.048 127.931C398.54 127.931 397.032 128.434 395.775 129.314C394.643 130.321 393.889 131.579 393.512 133.088Z" fill="#003180"/>
<path d="M422.046 155.855V104.157C422.046 103.654 422.172 103.151 422.549 102.774C422.926 102.396 423.303 102.27 423.932 102.27H433.988C434.491 102.27 434.993 102.396 435.37 102.774C435.748 103.151 435.873 103.528 435.873 104.157V155.855C435.873 156.358 435.748 156.862 435.37 157.239C434.993 157.616 434.616 157.742 434.113 157.742H424.183C423.68 157.742 423.177 157.616 422.8 157.239C422.298 156.862 422.046 156.358 422.046 155.855Z" fill="#003180"/>
<path d="M467.299 155.855V155.226C466.042 156.484 464.533 157.365 463.025 157.994C461.391 158.623 459.631 158.874 457.745 158.874C452.214 158.874 447.438 156.862 443.667 152.836C439.896 148.811 437.885 143.906 437.885 138.119C437.885 132.333 439.77 127.428 443.667 123.403C447.438 119.377 452.214 117.365 457.745 117.365C459.631 117.365 461.391 117.616 463.025 118.245C464.659 118.874 466.042 119.755 467.299 121.013V120.384C467.299 119.88 467.424 119.377 467.801 119C468.179 118.623 468.556 118.497 469.184 118.497H479.24C479.743 118.497 480.246 118.623 480.623 119C481 119.377 481.126 119.755 481.126 120.384V155.855C481.126 156.358 481 156.862 480.623 157.239C480.246 157.616 479.869 157.742 479.366 157.742H469.436C468.933 157.742 468.43 157.616 468.053 157.239C467.676 156.862 467.299 156.358 467.299 155.855ZM451.712 138.119C451.712 140.384 452.466 142.27 453.974 143.78C455.483 145.289 457.368 146.17 459.631 146.17C461.893 146.17 463.653 145.415 465.287 143.78C466.796 142.27 467.55 140.258 467.55 138.119C467.55 135.981 466.796 133.969 465.287 132.459C463.779 130.95 461.893 130.069 459.631 130.069C457.368 130.069 455.608 130.824 453.974 132.459C452.466 134.094 451.712 135.981 451.712 138.119Z" fill="#003180"/>
<path d="M136.076 122.522L156.44 110.698L151.914 108.057L131.551 119.881L136.076 122.522Z" fill="#FFCD7D"/>
<path d="M129.791 128.057L134.316 130.698V125.415L129.791 122.899V128.057Z" fill="#FFCD7D"/>
<path d="M148.521 106.17L143.995 103.528L123.506 115.226L128.031 117.868L148.521 106.17Z" fill="#E0EFFF"/>
<path d="M159.834 112.711L139.47 124.409L143.995 127.05L164.359 115.226L159.834 112.711Z" fill="#E0EFFF"/>
<path d="M137.71 133.591C137.71 134.22 137.333 134.723 136.83 135.101C136.83 135.101 135.951 135.604 135.071 135.101L127.151 130.572C126.649 130.321 126.272 129.692 126.272 129.063V120.887L121.746 118.245V141.767L142.11 153.591V130.069L137.71 127.428V133.591Z" fill="#E0EFFF"/>
<path d="M145.63 153.591L165.993 141.767V118.245L145.63 130.069V153.591Z" fill="#AFC5CF"/>
<path d="M105.657 143.277L114.833 137.994C115.713 137.491 115.964 136.484 115.461 135.604C114.958 134.723 113.953 134.472 113.073 134.975L103.897 140.258C103.017 140.761 102.765 141.767 103.268 142.648C103.771 143.277 104.777 143.78 105.657 143.277Z" fill="#003282"/>
<path d="M168.633 113.843L144.75 100.006C144.247 99.7547 143.618 99.7547 142.99 100.006L119.232 113.843C118.729 114.094 118.352 114.723 118.352 115.352V142.899C118.352 143.528 118.729 144.031 119.232 144.409L142.99 158.12C143.241 158.245 143.493 158.371 143.87 158.371C144.121 158.371 144.498 158.245 144.75 158.12L168.633 144.283C169.136 144.031 169.513 143.403 169.513 142.774V115.226C169.513 114.723 169.136 114.094 168.633 113.843ZM156.44 110.698L136.076 122.522L131.551 119.881L151.914 108.057L156.44 110.698ZM134.316 125.415V130.572L129.791 127.931V122.774L134.316 125.415ZM143.995 103.528L148.521 106.17L128.031 117.868L123.506 115.226L143.995 103.528ZM142.235 153.591L121.872 141.767V118.245L126.397 120.887V129.063C126.397 129.692 126.774 130.195 127.277 130.572L135.196 135.101C136.076 135.604 136.83 135.101 136.956 135.101C137.459 134.849 137.836 134.22 137.836 133.591V127.428L142.361 130.069V153.591H142.235ZM143.995 127.05L139.47 124.409L159.834 112.585L164.359 115.226L143.995 127.05ZM165.993 141.767L145.629 153.591V130.069L165.993 118.245V141.767Z" fill="#003180"/>
<path d="M113.073 144.157L100.754 150.95C99.8742 151.453 99.6228 152.459 100.126 153.34C100.503 154.094 101.508 154.472 102.514 153.969L114.833 147.176C115.713 146.673 115.964 145.667 115.461 144.786C114.958 143.906 113.953 143.654 113.073 144.157Z" fill="#003282"/>
<path d="M113.45 157.113L122.626 151.83C123.506 151.327 123.757 150.321 123.255 149.44C122.752 148.56 121.746 148.308 120.866 148.811L111.69 154.094C110.81 154.597 110.559 155.604 111.062 156.484C111.439 157.239 112.444 157.742 113.45 157.113Z" fill="#003282"/>
</g>
<defs>
<clipPath id="clip0">
<rect width="381" height="60" fill="white" transform="translate(100 99)"/>
</clipPath>
</defs>
</svg>
